<svg fill="none" xmlns="http://www.w3.org/2000/svg" viewBox="0 0 240 40">
  <path d="M76.31 1.67 29.86 3.89l-6.63 34.44 18.8-1.1 12.16-1.67 2.77-3.34 21.57 2.22 43.13 2.23 107.83-3.9L239.45 0l-45.9 1.67L98.43 5l-3.31-2.22-18.8-1.11Z" fill="#DEF935"/>
  <path d="M54.75 31.67 54.19 35l9.96-13.33-9.4 10ZM48.66 31.11l-7.74 6.11 3.32-.55 5.53-5 16.04-12.23-17.15 11.67ZM66.91 10l-3.87 2.78 6.64.55.55 3.9c4.98-2.23 15.82-6.67 19.36-6.67 3.53 0 9.21 2.59 11.6 3.88a36.7 36.7 0 0 0-8.29-6.1C89.36 6.55 78.16 9.8 73 11.66L66.9 10ZM116.13 28.89 98.43 5.56l5.53 12.22L113.92 30l22.12 3.33-19.91-4.44Z" fill="#F3FFAD"/>
  <path d="M40 20.09A20.02 20.02 0 0 1 19.91 40 19.98 19.98 0 0 1 0 19.91a20 20 0 1 1 40 .17Z" fill="#221F1F"/>
  <path d="M10.51 15.38c.69.14 1.43-.69 1.68-1.86.26-1.17-.08-2.25-.77-2.4-.45-.1-.94.26-1.3.86.3.17.45.55.3.89-.14.28-.45.45-.73.4-.15 1.02.2 1.97.82 2.1Zm-3.27-2.46c.54-2.9 2.22-5.02 3.73-4.73 1.54.28 2.3 2.88 1.77 5.79-.52 2.91-2.2 5.02-3.7 4.74-1.55-.29-2.34-2.89-1.8-5.8Zm26.46 2.46C16.64 26.79 4.87 21 4.87 21c-.17 3.96 6.61 16.18 14.76 16.35 8.1.14 14.07-21.97 14.07-21.97Zm-24.78 3.8c1.8.34 3.73-1.95 4.33-5.11.6-3.17-.37-6.02-2.14-6.37-1.8-.34-3.73 1.94-4.33 5.11-.63 3.2.34 6.05 2.14 6.36Zm6.12-1.63c.6-.66 1.28-1.32 2.05-1.92 3.54-2.7 7.38-3.39 8.64-1.5.48.73.5 1.73.14 2.85 1.25-2.09 1.65-4 .88-5.05-1.3-1.77-5.33-.55-9.03 2.7a19.4 19.4 0 0 0-2.68 2.92Zm3.93-8.65C21.8 7 26.67 5.93 29.26 9.93 27.66.74 20.9 6.02 18.97 8.9ZM39.5 20.1a19.46 19.46 0 1 1-38.95-.2c0-6.97 3.48-11.99 6.78-14.67 4.05-3.28 6.81-.77 7.78 1.14-.11-.8-.46-3.14-1.34-4.82A19.52 19.52 0 0 1 39.5 20.08ZM27.2 29.93c-2.11 3.8-4.73 6.9-7.67 6.85a9.51 9.51 0 0 1-5.15-1.83c.51-.91 3.7-5.56 12.82-5.02Z" fill="#05BC52"/>
  <path d="M80.72 17.92a3.06 3.06 0 0 0 1.77-2.84c-.03-2.15-1.78-3.68-5.06-3.64l-5.42.08.2 13.97 5.75-.09c3.43-.05 5.22-1.75 5.18-4.08-.02-1.68-.92-2.8-2.42-3.4Zm-3.05-4.12c1.18-.02 1.98.58 1.99 1.54.02 1.04-.76 1.73-1.94 1.75l-3 .04-.04-3.3 2.99-.03Zm.56 9.22-3.42.05-.05-3.69 3.11-.04c1.55-.02 2.42.68 2.44 1.74.01 1.16-.82 1.93-2.08 1.94ZM85.4 25.3l2.62-.04-.2-14.2-2.62.03.2 14.2ZM94.7 15.14c-1.41.02-3.13.6-4.13 1.3l.04 2.63a6.08 6.08 0 0 1 4.02-1.67c1.3-.02 1.99.3 2 .9 0 .43-.2.67-1.42.93l-1.32.25c-2.78.54-3.93 1.66-3.9 3.21.02 1.68 1.36 2.76 3.39 2.73a4.13 4.13 0 0 0 3.33-1.69l.02 1.4 2.53-.04-.1-6.16c-.03-2.43-1.7-3.83-4.47-3.79Zm-.85 8.24c-.72 0-1.2-.39-1.2-1.06-.01-.62.63-1.03 1.89-1.3l.5-.12a5.2 5.2 0 0 0 1.62-.6v.58c.03 1.66-1.12 2.47-2.81 2.5ZM110.47 24.23l-.04-2.61a4.96 4.96 0 0 1-3.42 1.3c-1.8.03-3-1.09-3.03-2.94-.03-1.64 1-2.83 2.45-2.85a1.7 1.7 0 0 1 1.7 1.51l2.54-.04c.03-1.95-1.46-3.67-4.28-3.63-2.99.05-5.15 2.17-5.1 5.05.04 3.13 2.14 5.25 5.63 5.2a6.23 6.23 0 0 0 3.55-.99ZM123.16 24.75l-4.93-5.1 4.27-4.67-3.2.05-3.69 4.2-.13-8.58-2.6.04.2 14.2 2.61-.04-.06-4.38 4.06 4.33 3.47-.05ZM138.86 13.05l-.04-2.5-9.64.14.2 13.97 2.73-.04-.08-5.93 5.7-.08-.03-2.5-5.7.09-.05-3.05 6.9-.1ZM145.92 14.4a3.36 3.36 0 0 0-3 1.84l-.03-1.56-2.61.04.14 9.77 2.61-.03-.08-5.33a2.23 2.23 0 0 1 2.28-2.37c1-.01 1.63.18 2.24.63l-.04-2.8c-.47-.13-.97-.2-1.51-.2ZM150.72 12.81a1.6 1.6 0 0 0 1.62-1.66 1.6 1.6 0 0 0-1.67-1.6 1.6 1.6 0 0 0-1.62 1.65 1.6 1.6 0 0 0 1.67 1.61Zm-1.14 11.55 2.6-.04-.13-9.77-2.61.04.14 9.77ZM162.07 9.97l.1 6.03a3.84 3.84 0 0 0-3.37-1.79c-2.7.04-4.53 2.16-4.48 5.2.04 3.03 1.92 5.1 4.63 5.05a3.85 3.85 0 0 0 3.3-1.88l.03 1.6 2.61-.04-.2-14.2-2.62.03Zm-2.4 12.31c-1.55.02-2.66-1.16-2.68-2.91-.03-1.76 1.04-2.97 2.59-3 1.56-.02 2.66 1.16 2.7 2.92.02 1.75-1.05 2.97-2.62 2.99ZM171.57 14.03c-1.4.02-3.12.6-4.12 1.3l.04 2.63a6.08 6.08 0 0 1 4.01-1.68c1.3-.02 2 .31 2 .91.01.42-.19.66-1.4.92l-1.33.26c-2.78.54-3.93 1.65-3.91 3.2.02 1.68 1.36 2.76 3.4 2.73a4.13 4.13 0 0 0 3.32-1.68l.02 1.4 2.53-.04-.09-6.17c-.03-2.43-1.7-3.82-4.47-3.78Zm-.84 8.23c-.73 0-1.2-.38-1.2-1.06-.01-.62.62-1.03 1.88-1.3l.5-.11a5.2 5.2 0 0 0 1.62-.6l.01.57c.03 1.66-1.13 2.47-2.81 2.5ZM185.28 14.07l-2.44 6.16-3-6.08-2.96.04 4.72 9.09-2.22 5.08 2.65-.04 6-14.3-2.75.05Z" fill="#000"/>
</svg>
